<svg xmlns="http://www.w3.org/2000/svg" viewBox="0 0 32 32" width="32" height="32">
  <!-- Connections -->
  <line x1="4"  y1="16" x2="12" y2="8"  stroke="#647d98" stroke-width="1.5" stroke-linecap="round"/>
  <line x1="4"  y1="16" x2="12" y2="24" stroke="#647d98" stroke-width="1.5" stroke-linecap="round"/>
  <line x1="12" y1="8"  x2="20" y2="16" stroke="#647d98" stroke-width="1.5" stroke-linecap="round"/>
  <line x1="12" y1="24" x2="20" y2="16" stroke="#647d98" stroke-width="1.5" stroke-linecap="round"/>
  <line x1="20" y1="16" x2="28" y2="8"  stroke="#647d98" stroke-width="1.5" stroke-linecap="round"/>
  <line x1="20" y1="16" x2="28" y2="24" stroke="#647d98" stroke-width="1.5" stroke-linecap="round"/>
  <line x1="12" y1="8"  x2="12" y2="24" stroke="#647d98" stroke-width="1.5" stroke-linecap="round"/>
  <line x1="20" y1="8"  x2="20" y2="24" stroke="#647d98" stroke-width="1.5" stroke-linecap="round"/>
  <line x1="12" y1="8"  x2="20" y2="8"  stroke="#647d98" stroke-width="1.5" stroke-linecap="round"/>
  <line x1="12" y1="24" x2="20" y2="24" stroke="#647d98" stroke-width="1.5" stroke-linecap="round"/>

  <!-- Nodes -->
  <circle cx="4"  cy="16" r="3.5" fill="#3d5082"/>
  <circle cx="12" cy="8"  r="3"   fill="#7bbfb5"/>
  <circle cx="12" cy="24" r="3"   fill="#e8b898"/>
  <circle cx="20" cy="8"  r="3"   fill="#c4b2d4"/>
  <circle cx="20" cy="24" r="3"   fill="#7bbfb5"/>
  <circle cx="28" cy="8"  r="3"   fill="#c4b2d4"/>
  <circle cx="28" cy="24" r="3"   fill="#e8b898"/>
  <!-- Centre hub — larger -->
  <circle cx="16" cy="16" r="4.5" fill="#4dbfbd"/>
</svg>
